<svg width="28" height="18" viewBox="0 0 28 18" fill="none" xmlns="http://www.w3.org/2000/svg">
<path d="M26.2392 7.55515L15.612 1.19694C15.3491 1.03697 15.048 0.950538 14.7403 0.946678C14.4326 0.942818 14.1295 1.02167 13.8626 1.17499C13.5731 1.34359 13.3334 1.58581 13.1677 1.87704C13.0021 2.16828 12.9165 2.49817 12.9196 2.83319V7.28113L2.75095 1.19525C2.48805 1.03528 2.187 0.94885 1.87928 0.94499C1.57155 0.94113 1.26844 1.01998 1.0016 1.1733C0.712071 1.3419 0.472317 1.58412 0.306686 1.87536C0.141055 2.16659 0.0554483 2.49648 0.0585588 2.8315V15.2666C0.0553486 15.6017 0.140908 15.9317 0.306544 16.2231C0.47218 16.5144 0.711987 16.7567 1.0016 16.9254C1.26844 17.0787 1.57155 17.1575 1.87928 17.1537C2.187 17.1498 2.48805 17.0634 2.75095 16.9034L12.9196 10.8147V15.2643C12.916 15.5998 13.0014 15.9303 13.167 16.2221C13.3327 16.5139 13.5727 16.7565 13.8626 16.9254C14.1295 17.0787 14.4326 17.1575 14.7403 17.1537C15.048 17.1498 15.3491 17.0634 15.612 16.9034L26.2392 10.5452C26.4919 10.3869 26.7001 10.1671 26.8445 9.90627C26.9889 9.64545 27.0647 9.35223 27.0647 9.05411C27.0647 8.756 26.9889 8.46277 26.8445 8.20196C26.7001 7.94114 26.4919 7.72129 26.2392 7.56303V7.55515Z" fill="#E1E1E6"/>
</svg>
