<svg width="28" height="18" viewBox="0 0 28 18" fill="none" xmlns="http://www.w3.org/2000/svg">
<path d="M1.43579 7.55515L12.063 1.19694C12.3259 1.03697 12.627 0.950538 12.9347 0.946678C13.2424 0.942818 13.5455 1.02167 13.8124 1.17499C14.1019 1.34359 14.3416 1.58581 14.5073 1.87704C14.6729 2.16828 14.7585 2.49817 14.7554 2.83319V7.28113L24.924 1.19525C25.187 1.03528 25.488 0.94885 25.7957 0.94499C26.1034 0.94113 26.4066 1.01998 26.6734 1.1733C26.9629 1.3419 27.2027 1.58412 27.3683 1.87536C27.5339 2.16659 27.6196 2.49648 27.6164 2.8315V15.2666C27.6197 15.6017 27.5342 15.9318 27.3685 16.2231C27.2029 16.5145 26.9631 16.7568 26.6734 16.9254C26.4066 17.0787 26.1034 17.1575 25.7957 17.1537C25.488 17.1498 25.187 17.0634 24.924 16.9034L14.7554 10.8147V15.2643C14.7591 15.5999 14.6737 15.9303 14.5081 16.2221C14.3424 16.5139 14.1024 16.7566 13.8124 16.9254C13.5455 17.0787 13.2424 17.1575 12.9347 17.1537C12.627 17.1498 12.3259 17.0634 12.063 16.9034L1.43579 10.5452C1.18315 10.3869 0.974865 10.1671 0.830481 9.90627C0.686098 9.64545 0.610352 9.35223 0.610352 9.05411C0.610352 8.756 0.686098 8.46277 0.830481 8.20196C0.974865 7.94114 1.18315 7.72129 1.43579 7.56303V7.55515Z" fill="#E1E1E6"/>
</svg>
