<svg width="19" height="22" viewBox="0 0 19 22" fill="none"
    xmlns="http://www.w3.org/2000/svg">
    <path d="M2.41802 21.4014C2.07255 21.4007 1.7332 21.3102 1.43334 21.1386C0.758134 20.756 0.338379 20.0133 0.338379 19.207V2.88941C0.338379 2.08085 0.758134 1.34037 1.43334 0.957753C1.74034 0.781319 2.08909 0.690588 2.44315 0.695042C2.79721 0.699496 3.14357 0.798973 3.44603 0.983074L17.3919 9.3309C17.6825 9.51315 17.9221 9.76622 18.0882 10.0664C18.2543 10.3666 18.3414 10.704 18.3414 11.0471C18.3414 11.3901 18.2543 11.7276 18.0882 12.0277C17.9221 12.3279 17.6825 12.581 17.3919 12.7632L3.44378 21.1133C3.13425 21.3004 2.77972 21.4 2.41802 21.4014Z" fill="#E1E1E6"/>
</svg>
